o Cube
v 0.088213 0.203784 -0.216325
v 0.088213 -0.203784 -0.216325
v 0.088213 0.203784 0.690077
v 0.088213 -0.203784 0.690077
v -0.088213 0.203784 -0.216325
v -0.088213 -0.203784 -0.216325
v -0.088213 0.203784 0.690077
v -0.088213 -0.203784 0.690077
v 0.088213 0.000000 -0.842730
v -0.088213 0.000000 -0.842730
v 0.088213 -0.465856 -0.216325
v 0.088213 0.465856 -0.216325
v -0.088213 0.465856 -0.216325
v -0.088213 -0.465856 -0.216325
vt 0.625000 0.500000
vt 0.875000 0.500000
vt 0.875000 0.669667
vt 0.625000 0.669667
vt 0.375000 0.669667
vt 0.625000 1.000000
vt 0.375000 1.000000
vt 0.375000 0.500000
vt 0.625000 0.500000
vt 0.625000 0.500000
vt 0.375000 0.500000
vt 0.125000 0.500000
vt 0.125000 0.669667
vt 0.125000 0.500000
vt 0.125000 0.500000
vt 0.375000 0.500000
vt 0.875000 0.500000
vt 0.875000 0.500000
vt 0.625000 0.250000
vt 0.375000 0.250000
vt 0.375000 0.250000
vt 0.375000 0.250000
vt 0.375000 0.080333
vt 0.625000 0.080333
vt 0.625000 0.250000
vn 0.0000 1.0000 0.0000
vn 0.0000 0.0000 1.0000
vn 1.0000 0.0000 0.0000
vn 0.0000 -1.0000 0.0000
vn 0.0000 -0.8024 -0.5968
vn 0.0000 0.8024 -0.5968
vn -1.0000 0.0000 0.0000
usemtl Material
s off
f 1/1/1 5/2/1 7/3/1 3/4/1
f 4/5/2 3/4/2 7/6/2 8/7/2
f 11/8/3 9/9/3 12/10/3 1/1/3 3/4/3 4/5/3 2/11/3
f 6/12/4 2/11/4 4/5/4 8/13/4
f 11/8/5 14/14/5 10/15/5 9/16/5
f 13/17/6 12/10/6 9/9/6 10/18/6
f 5/2/2 1/1/2 12/10/2 13/17/2
f 2/11/2 6/12/2 14/14/2 11/8/2
f 13/19/7 10/20/7 14/21/7 6/22/7 8/23/7 7/24/7 5/25/7
