<?xml version="1.0" encoding="utf-8"?>
<!-- Generator: Adobe Illustrator 23.0.0, SVG Export Plug-In . SVG Version: 6.00 Build 0)  -->
<svg version="1.1" id="Layer_1" xmlns="http://www.w3.org/2000/svg" xmlns:xlink="http://www.w3.org/1999/xlink" x="0px" y="0px"
	 viewBox="0 0 25 20" style="enable-background:new 0 0 25 20;" xml:space="preserve">
<style type="text/css">
	.st0{fill:#3B3131;}
</style>
<path class="st0" d="M25,0.9C25,0.3,24.7,0,24.2,0H0.8C0.3,0,0,0.3,0,0.9v2.6C0,4,0.3,4.3,0.8,4.3h23.3C24.7,4.3,25,4,25,3.5
	C25,3.5,25,0.9,25,0.9z M25,16.5c0-0.5-0.3-0.9-0.8-0.9H0.8C0.3,15.7,0,16,0,16.5v2.6C0,19.7,0.3,20,0.8,20h23.3
	c0.5,0,0.8-0.3,0.8-0.9v-2.6H25z M25,8.7c0-0.5-0.3-0.9-0.8-0.9H0.8C0.3,7.8,0,8.2,0,8.7v2.6c0,0.5,0.3,0.9,0.8,0.9h23.3
	c0.5,0,0.8-0.3,0.8-0.9V8.7H25z"/>
</svg>
