<?xml version="1.0" encoding="UTF-8" standalone="no"?>
<svg
   xmlns:dc="http://purl.org/dc/elements/1.1/"
   xmlns:cc="http://creativecommons.org/ns#"
   xmlns:rdf="http://www.w3.org/1999/02/22-rdf-syntax-ns#"
   xmlns:svg="http://www.w3.org/2000/svg"
   xmlns="http://www.w3.org/2000/svg"
   xmlns:sodipodi="http://sodipodi.sourceforge.net/DTD/sodipodi-0.dtd"
   xmlns:inkscape="http://www.inkscape.org/namespaces/inkscape"
   width="24"
   height="24"
   viewBox="0 0 24 24"
   version="1.1"
   id="svg4"
   sodipodi:docname="icon_location.svg"
   inkscape:version="0.92.3 (2405546, 2018-03-11)">
  <metadata
     id="metadata10">
    <rdf:RDF>
      <cc:Work
         rdf:about="">
        <dc:format>image/svg+xml</dc:format>
        <dc:type
           rdf:resource="http://purl.org/dc/dcmitype/StillImage" />
      </cc:Work>
    </rdf:RDF>
  </metadata>
  <defs
     id="defs8" />
  <sodipodi:namedview
     pagecolor="#ffffff"
     bordercolor="#666666"
     borderopacity="1"
     objecttolerance="10"
     gridtolerance="10"
     guidetolerance="10"
     inkscape:pageopacity="0"
     inkscape:pageshadow="2"
     inkscape:window-width="1920"
     inkscape:window-height="993"
     id="namedview6"
     showgrid="false"
     inkscape:zoom="32"
     inkscape:cx="12.917447"
     inkscape:cy="10.777429"
     inkscape:window-x="0"
     inkscape:window-y="0"
     inkscape:window-maximized="1"
     inkscape:current-layer="svg4" />
  <path
     d="m 12,3 c 2.131,0 4,1.73 4,3.702 0,2.05 -1.714,4.941 -4,8.561 C 9.714,11.643 8,8.752 8,6.702 8,4.73 9.869,3 12,3 Z M 12,1 C 8.852,1 6,3.553 6,6.702 6,9.85 8.602,13.609 12,19 15.398,13.609 18,9.85 18,6.702 18,3.553 15.149,1 12,1 Z m 0,8 c -8,10 -4,5 0,0 z m 8,6 h -3.135 c -0.385,0.641 -0.798,1.309 -1.232,2 h 3.131 l 0.5,1 H 15 L 14.656,18.544 14.367,19 h 0.558 l 0.858,2 H 8.295 L 9.153,19 H 9.632 L 9.343,18.544 9,18 H 6.958 L 5.947,17 h 2.42 C 7.932,16.309 7.519,15.641 7.135,15 H 4 L 0,23 H 24 Z M 7.206,21 H 3.236 L 5,17.472 6.516,19 h 1.549 z m 8.808,-2 h 3.75 l 1,2 h -3.892 z"
     id="path2"
     style="fill:#3b3131;fill-opacity:1"
     inkscape:connector-curvature="0"
     sodipodi:nodetypes="sscsssscsscccccccccccccccccccccccccccccccccccc" />
  <path
     style="opacity:0.98400005;fill:#a60000;fill-opacity:1;stroke-width:0.01886124"
     d="M 11.546594,14.761591 C 11.484602,14.664942 11.424393,14.570889 11.365838,14.479225 10.686313,13.415476 10.229559,12.67343 9.7951542,11.928938 8.3955723,9.5303016 7.7576579,7.8640057 7.7599068,6.6126645 7.7614948,5.7290904 8.1450451,4.8421514 8.8311361,4.1355052 9.5056133,3.4408209 10.43686,2.9698506 11.41084,2.830842 c 0.273015,-0.038965 0.906528,-0.038965 1.179542,0 1.243899,0.1775321 2.368105,0.8725228 3.048334,1.8844977 0.420268,0.6252301 0.627163,1.33752 0.596303,2.052926 -0.05784,1.3408154 -0.747642,3.0211244 -2.31972,5.6506373 -0.532359,0.890442 -1.884178,3.027032 -1.915201,3.027032 -0.008,0 -0.212083,-0.307954 -0.453504,-0.684344 z M 12.459106,8.9559615 C 13.118446,8.8165667 13.687464,8.355977 13.960312,7.7408159 14.293185,6.9903258 14.130637,6.0968657 13.552554,5.4995403 13.287812,5.2259852 12.917417,5.0099789 12.544625,4.9117389 12.369886,4.8656906 12.324641,4.861513 12.000611,4.861513 c -0.321828,0 -0.369999,0.00437 -0.538842,0.048947 -1.295777,0.3420578 -1.9599834,1.7287127 -1.389,2.8997955 0.306379,0.6283808 0.907166,1.0650286 1.614246,1.1732217 0.158916,0.024316 0.601536,0.00855 0.772091,-0.027516 z"
     id="path814"
     inkscape:connector-curvature="0"
     sodipodi:nodetypes="sssssssscsssccssscssc" />
</svg>
